<svg id="Raggruppa_6" data-name="Raggruppa 6" xmlns="http://www.w3.org/2000/svg" width="46.908" height="46.908" viewBox="0 0 46.908 46.908">
  <path id="Tracciato_7" data-name="Tracciato 7" d="M215.978,211.489A4.489,4.489,0,1,1,211.489,207,4.489,4.489,0,0,1,215.978,211.489Z" transform="translate(-188.035 -188.035)" fill="#203c61"/>
  <path id="Tracciato_8" data-name="Tracciato 8" d="M157.024,138.586a4.459,4.459,0,0,0-2.556-2.556,7.452,7.452,0,0,0-2.5-.463c-1.42-.065-1.846-.079-5.442-.079s-4.022.014-5.442.078a7.457,7.457,0,0,0-2.5.464,4.461,4.461,0,0,0-2.556,2.556,7.455,7.455,0,0,0-.463,2.5c-.065,1.42-.079,1.846-.079,5.442s.014,4.022.079,5.442a7.452,7.452,0,0,0,.463,2.5,4.459,4.459,0,0,0,2.556,2.556,7.443,7.443,0,0,0,2.5.464c1.42.065,1.846.078,5.442.078s4.023-.014,5.442-.078a7.443,7.443,0,0,0,2.5-.464,4.46,4.46,0,0,0,2.556-2.556,7.46,7.46,0,0,0,.464-2.5c.065-1.42.078-1.846.078-5.442s-.014-4.022-.078-5.442A7.443,7.443,0,0,0,157.024,138.586Zm-10.5,14.858a6.916,6.916,0,1,1,6.916-6.916A6.916,6.916,0,0,1,146.525,153.445Zm7.189-12.488a1.616,1.616,0,1,1,1.616-1.616A1.616,1.616,0,0,1,153.714,140.956Z" transform="translate(-123.071 -123.075)" fill="#203c61"/>
  <path id="Tracciato_9" data-name="Tracciato 9" d="M23.454,0A23.454,23.454,0,1,0,46.908,23.454,23.456,23.456,0,0,0,23.454,0ZM36.84,29.006a9.88,9.88,0,0,1-.626,3.269,6.886,6.886,0,0,1-3.939,3.939,9.888,9.888,0,0,1-3.269.626c-1.436.066-1.895.081-5.552.081s-4.116-.016-5.553-.081a9.887,9.887,0,0,1-3.269-.626,6.886,6.886,0,0,1-3.939-3.939,9.878,9.878,0,0,1-.626-3.269c-.066-1.436-.082-1.9-.082-5.553s.015-4.116.081-5.552a9.882,9.882,0,0,1,.626-3.269,6.891,6.891,0,0,1,3.939-3.939,9.89,9.89,0,0,1,3.269-.626c1.436-.066,1.895-.081,5.552-.081s4.116.016,5.552.082a9.892,9.892,0,0,1,3.269.625,6.888,6.888,0,0,1,3.939,3.939,9.88,9.88,0,0,1,.626,3.269c.066,1.436.081,1.895.081,5.552S36.906,27.57,36.84,29.006Z" fill="#203c61"/>
</svg>
